<svg width="156" height="20" xmlns="http://www.w3.org/2000/svg">
 <defs>
  <linearGradient id="a" x2="0" y2="100%">
   <stop offset="0" stop-color="#bbb" stop-opacity="0.1"/>
   <stop offset="2" stop-opacity="0.1"/>
  </linearGradient>
 </defs>
 <!-- Comment -->
 <g>
  <title>background</title>
  <rect x="-1" y="-1" width="158" height="22" id="canvas_background" fill="none"/>
 </g>
 <g>
  <title>Layer 1</title>
  <rect rx="3" width="60" height="20" fill="#555" id="svg_1"/>
  <rect y="0" stroke="null" rx="3" x="60" width="96" height="20" fill="#4c1" id="svg_2"/>
  <path fill="#4c1" d="m58,0l4,0l0,20l-4,0l0,-20z" id="svg_3"/>
  <rect stroke="null" rx="3" width="156" height="20" fill="url(#a)" id="svg_4" x="-1" y="0"/>
  <g stroke="null" fill="#fff" text-anchor="middle" font-family="DejaVu Sans,Verdana,Geneva,sans-serif" font-size="11" id="svg_5">
   <text stroke="null" transform="matrix(1.0788891568097367,0,0,1,-4.230177607069699,1) " x="31" y="14" fill="#010101" fill-opacity="0.3" id="svg_6">Forge</text>
   <text stroke="null" transform="matrix(1.0788891568097367,0,0,1,-4.230177607069699,1) " x="31" y="13" id="svg_7">Forge</text>
   <text stroke="null" transform="matrix(1.0788891568097367,0,0,1,-4.230177607069699,1) " x="104" y="14" fill="#010101" fill-opacity="0.3" id="svg_8">v1.12.2 latest</text>
   <text stroke="null" transform="matrix(1.0788891568097367,0,0,1,-4.230177607069699,1) " x="104" y="13" id="svg_9">v1.12.2 latest</text>
  </g>
 </g>
</svg>
