<svg width="243" height="20" xmlns="http://www.w3.org/2000/svg">
 <defs>
  <linearGradient y2="100%" x2="0" id="a">
   <stop stop-opacity="0.1" stop-color="#bbb" offset="0"/>
   <stop stop-opacity="0.1" offset="2"/>
  </linearGradient>
 </defs>
 <!-- Comment -->
 <g>
  <title>background</title>
  <rect fill="none" id="canvas_background" height="22" width="245" y="-1" x="-1"/>
 </g>
 <g>
  <title>Layer 1</title>
  <rect id="svg_1" fill="#555" height="20" width="60" rx="3"/>
  <rect stroke="null" id="svg_2" fill="#4c1" height="20" width="183" x="60" rx="3" y="0"/>
  <path id="svg_3" d="m58,0l4,0l0,20l-4,0l0,-20z" fill="#4c1"/>
  <rect stroke="null" y="0" x="-1" id="svg_4" fill="url(#a)" height="20" width="242.00002" rx="3"/>
  <g stroke="null" id="svg_5" font-size="11" font-family="DejaVu Sans,Verdana,Geneva,sans-serif" text-anchor="middle" fill="#fff">
   <text stroke="null" id="svg_6" fill-opacity="0.3" fill="#010101" y="13" x="31" transform="matrix(1.0788891568097367,0,0,1,-4.230177607069699,1) ">Spigot</text>
   <text stroke="null" id="svg_7" y="12" x="31" transform="matrix(1.0788891568097367,0,0,1,-4.230177607069699,1) ">Spigot</text>
   <text transform="matrix(1,0,0,1,0,0) " stroke="null" id="svg_8" fill-opacity="0.3" fill="#010101" y="13" x="150">v1.12.2-R0.1-Snapshot-b1641</text>
   <text transform="matrix(1,0,0,1,0,0) " stroke="null" id="svg_9" y="13" x="151.49021">v1.12.2-R0.1-Snapshot-b1641</text>
  </g>
 </g>
</svg>
